<svg width="900" height="980" viewBox="0 0 900 980" fill="none" xmlns="http://www.w3.org/2000/svg">
  <defs>
    <linearGradient id="bg" x1="0" y1="0" x2="900" y2="980" gradientUnits="userSpaceOnUse">
      <stop stop-color="#06131A"/>
      <stop offset="1" stop-color="#03070B"/>
    </linearGradient>
    <radialGradient id="glow" cx="0" cy="0" r="1" gradientUnits="userSpaceOnUse" gradientTransform="translate(450 400) rotate(90) scale(360 300)">
      <stop stop-color="#61DAFB" stop-opacity="0.28"/>
      <stop offset="1" stop-color="#61DAFB" stop-opacity="0"/>
    </radialGradient>
    <filter id="shadow" x="-20%" y="-20%" width="140%" height="140%">
      <feDropShadow dx="0" dy="36" stdDeviation="34" flood-color="#000000" flood-opacity="0.5"/>
    </filter>
  </defs>
  <rect width="900" height="980" rx="48" fill="url(#bg)"/>
  <rect width="900" height="980" rx="48" fill="url(#glow)"/>
  <ellipse cx="450" cy="760" rx="240" ry="56" fill="#000000" fill-opacity="0.55"/>
  <g filter="url(#shadow)">
    <circle cx="450" cy="410" r="82" fill="#CFF7FF" fill-opacity="0.12" stroke="#61DAFB" stroke-width="4"/>
    <circle cx="450" cy="410" r="26" fill="#61DAFB"/>
    <ellipse cx="450" cy="410" rx="250" ry="110" stroke="#61DAFB" stroke-width="12" opacity="0.9"/>
    <ellipse cx="450" cy="410" rx="250" ry="110" stroke="#61DAFB" stroke-width="12" opacity="0.9" transform="rotate(60 450 410)"/>
    <ellipse cx="450" cy="410" rx="250" ry="110" stroke="#61DAFB" stroke-width="12" opacity="0.9" transform="rotate(-60 450 410)"/>
    <circle cx="703" cy="410" r="22" fill="#61DAFB"/>
    <circle cx="322" cy="410" r="22" fill="#61DAFB"/>
    <circle cx="575" cy="191" r="22" fill="#61DAFB"/>
    <circle cx="575" cy="629" r="22" fill="#61DAFB"/>
    <circle cx="325" cy="198" r="22" fill="#61DAFB"/>
    <circle cx="325" cy="622" r="22" fill="#61DAFB"/>
    <circle cx="450" cy="250" r="12" fill="#CFF7FF"/>
    <circle cx="450" cy="570" r="12" fill="#CFF7FF"/>
  </g>
  <g opacity="0.16" stroke="#FFFFFF" stroke-width="2">
    <path d="M205 235L695 235"/>
    <path d="M205 585L695 585"/>
  </g>
</svg>
